<?xml version="1.0" encoding="UTF-8" standalone="no"?><!DOCTYPE svg PUBLIC "-//W3C//DTD SVG 1.1//EN" "http://www.w3.org/Graphics/SVG/1.1/DTD/svg11.dtd"><svg width="100%" height="100%" viewBox="0 0 100 100" version="1.1" xmlns="http://www.w3.org/2000/svg" xmlns:xlink="http://www.w3.org/1999/xlink" xml:space="preserve" xmlns:serif="http://www.serif.com/" style="fill-rule:evenodd;clip-rule:evenodd;stroke-linejoin:round;stroke-miterlimit:1.41421;"><g><path d="M69.732,62.844l4.47,-2.581l10.676,18.491l4.148,-2.395l-1.33,12.438l-11.436,-5.067l4.148,-2.395l-10.676,-18.491Z" style="fill:#5adafd;"/><path d="M63.015,42.126c4.332,-5.332 -3.471,-12.369 -8.344,-7.496l-0.141,0.142c-3.12,3.327 -0.891,9.404 4.03,9.404c3.215,9.84 1.668,21.837 -4.181,30.432c-3.695,5.432 -10,10.431 -17.032,9.025c-9.625,-2.02 -13.759,-11.723 -12.374,-20.86c-1.203,-0.636 -3.182,-1.768 -4.526,-2.687c-1.037,6.48 -0.485,14.908 4.057,20.162c3.865,4.471 6.413,6.637 12.065,8.123c8.394,2.206 17.711,-4.535 21.779,-11.314c7.283,-10.819 8.768,-23.052 4.667,-34.931" style="fill:#5adafd;fill-rule:nonzero;"/><path d="M66.692,20.913c-11.667,-0.92 -23.052,3.535 -32.103,12.586l-1.131,1.131c-1.909,-0.636 -4.101,-0.141 -5.586,1.344l-0.142,0.141c-2.121,2.263 -1.98,5.799 0.283,7.92c2.192,2.051 5.657,1.98 7.778,-0.142l0.142,-0.141c1.485,-1.626 1.838,-3.96 1.06,-5.869l1.273,-1.273c5.374,-5.374 12.021,-8.909 19.658,-10.465c5.869,-1.202 11.455,-0.707 16.546,1.556c4.172,1.768 7,4.737 8.202,8.485c1.768,5.728 0.495,11.102 -3.889,15.486c-2.828,2.828 -6.364,4.667 -8.414,5.444c-0.071,1.485 -0.354,4.031 -0.637,5.728c4.455,-1.626 8.344,-3.96 11.314,-6.93c6.788,-6.788 8.061,-15.556 6.223,-21.213c-2.051,-6.152 -9.263,-13.081 -20.577,-13.788Z" style="fill:#5adafd;fill-rule:nonzero;"/><path d="M40.741,66.804c2.192,2.05 5.657,1.98 7.778,-0.142l0.142,-0.141c2.121,-2.263 1.98,-5.798 -0.283,-7.92c-2.192,-2.05 -5.657,-1.98 -7.778,0.142l-0.142,0.141c-0.141,0.142 -0.353,0.354 -0.424,0.566c-7.708,-1.909 -14.142,-5.94 -19.375,-12.021c-3.96,-4.525 -6.222,-9.617 -6.788,-15.132c-0.566,-4.667 2.121,-9.9 4.738,-12.657c7.353,-7.637 19.869,-1.485 23.829,2.05c1.131,-0.707 3.182,-1.767 4.596,-2.475c-12.303,-10.606 -25.314,-9.475 -32.102,-2.687c-6.364,6.364 -7.637,16.83 -3.182,25.951c5.798,12.304 16.617,18.88 27.435,21.779c0.142,0.849 0.707,1.839 1.556,2.546Z" style="fill:#764abc;fill-rule:nonzero;"/></g></svg>